<!DOCTYPE svg PUBLIC "-//W3C//DTD SVG 1.1//EN" "http://www.w3.org/Graphics/SVG/1.1/DTD/svg11.dtd">
<!-- Uploaded to: SVG Repo, www.svgrepo.com, Transformed by: SVG Repo Mixer Tools -->
<svg fill="#52cffb" width="800px" height="800px" viewBox="-0.96 -0.96 25.92 25.92" role="img" xmlns="http://www.w3.org/2000/svg">
<g id="SVGRepo_bgCarrier" stroke-width="0">
<rect x="-0.96" y="-0.96" width="25.92" height="25.92" rx="0" fill="#134881" strokewidth="0"/>
</g>
<g id="SVGRepo_tracerCarrier" stroke-linecap="round" stroke-linejoin="round"/>
<g id="SVGRepo_iconCarrier">
<title>Affinity Designer icon</title>
<path d="M10.44 0L0 18.083v5.197a.72.72 0 00.713.72h10.023L5.7 15.277 14.52 0zm5.16 0l-4.86 8.418 3.718 6.439H24V.718A.72.72 0 0023.28 0zm-5.4 9.353l-2.064 3.575a1.289 1.289 0 000 1.288c.23.4.656.64 1.117.64h4.125zm-3.122 6.44L11.816 24h11.471a.72.72 0 00.713-.718v-7.49Z"/>
</g>
</svg>