<?xml version="1.0" encoding="UTF-8" standalone="no"?>
<!DOCTYPE svg PUBLIC "-//W3C//DTD SVG 1.1//EN" "http://www.w3.org/Graphics/SVG/1.1/DTD/svg11.dtd">
<svg width="100%" height="100%" viewBox="0 0 96 96" version="1.1" xmlns="http://www.w3.org/2000/svg" xmlns:xlink="http://www.w3.org/1999/xlink" xml:space="preserve" xmlns:serif="http://www.serif.com/" style="fill-rule:evenodd;clip-rule:evenodd;stroke-linejoin:round;stroke-miterlimit:2;">
    <g transform="matrix(1.12099,0,0,1.12099,-3.76441,-2.7305)">
        <path d="M86.293,25.197L86.293,65.313C86.293,76.383 77.305,85.37 66.235,85.37L26.12,85.37C15.049,85.37 6.062,76.383 6.062,65.313L6.062,25.197C6.062,14.127 15.049,5.14 26.12,5.14L66.235,5.14C77.305,5.14 86.293,14.127 86.293,25.197Z"/>
    </g>
    <g transform="matrix(0.738972,0,0,0.738972,12.5294,12.5294)">
        <path d="M9,6C7.343,6 6,7.343 6,9L6,75L0,75L0,9C0,4.029 4.029,0 9,0L89.379,0C93.388,0 95.396,4.847 92.561,7.682L43.055,57.188L57,57.188L57,51L63,51L63,58.688C63,61.173 60.985,63.188 58.5,63.188L37.055,63.188L26.743,73.5L73.5,73.5L73.5,36L79.5,36L79.5,73.5C79.5,76.814 76.814,79.5 73.5,79.5L20.743,79.5L10.243,90L87,90C88.657,90 90,88.657 90,87L90,21L96,21L96,87C96,91.971 91.971,96 87,96L6.621,96C2.612,96 0.605,91.153 3.439,88.318L52.757,39L39,39L39,45L33,45L33,37.5C33,35.015 35.015,33 37.5,33L58.757,33L69.257,22.5L22.5,22.5L22.5,60L16.5,60L16.5,22.5C16.5,19.186 19.186,16.5 22.5,16.5L75.257,16.5L85.757,6L9,6Z" style="fill:white;"/>
    </g>
</svg>
